<svg version="1.1" id="Layer_1" xmlns="http://www.w3.org/2000/svg" xmlns:xlink="http://www.w3.org/1999/xlink" x="0px" y="0px"
	 width="100%" viewBox="0 0 592 592" enable-background="new 0 0 592 592" xml:space="preserve">
<path fill="#000000" opacity="1.000000" stroke="none" 
	d="
M338.000000,593.000000 
	C225.333328,593.000000 113.166664,593.000000 1.000000,593.000000 
	C1.000000,395.666656 1.000000,198.333328 1.000000,1.000000 
	C198.333328,1.000000 395.666656,1.000000 593.000000,1.000000 
	C593.000000,198.333328 593.000000,395.666656 593.000000,593.000000 
	C508.166656,593.000000 423.333344,593.000000 338.000000,593.000000 
M190.519043,73.073753 
	C187.506241,74.851196 184.448746,76.557487 181.487488,78.417038 
	C150.157684,98.090935 124.301750,123.016769 107.126373,156.212326 
	C100.579971,168.864838 96.067024,182.239059 93.514984,196.252731 
	C92.272339,203.076248 93.039017,204.293091 99.629929,206.470047 
	C103.896454,207.879257 108.219795,209.115662 112.508484,210.458832 
	C115.690018,211.455261 118.300926,210.787750 120.597328,208.254471 
	C124.302231,204.167450 127.583725,199.767990 130.714523,195.246552 
	C141.432114,179.768402 152.235138,164.373413 164.351059,149.912552 
	C188.971802,120.526665 219.134201,100.428543 257.467560,94.249802 
	C284.925140,89.824059 312.659668,90.207527 340.161041,93.052666 
	C376.442535,96.806152 407.299988,112.427010 432.377625,139.236237 
	C447.460388,155.360474 460.448303,173.064560 472.854523,191.245331 
	C476.800537,197.028046 480.855774,202.724625 485.438599,208.032928 
	C487.714600,210.669250 490.207367,211.853943 493.786163,210.591202 
	C498.805542,208.820145 503.903717,207.229599 509.051117,205.877625 
	C513.225525,204.781219 514.187073,202.197113 513.469116,198.377823 
	C511.496155,187.883041 508.874634,177.582153 504.725433,167.702988 
	C490.616119,134.108871 467.149719,108.286926 437.988617,87.165550 
	C389.944153,52.367004 336.083801,39.227814 277.476501,44.647415 
	C246.689468,47.494385 218.112213,57.762192 190.519043,73.073753 
M227.537476,374.829193 
	C225.886002,369.241852 224.390167,363.602783 222.554413,358.076660 
	C216.632217,340.249176 212.268814,321.834595 202.547058,305.434387 
	C193.851059,290.764587 182.533264,287.629547 167.525879,295.628845 
	C162.892563,298.098450 160.702530,301.152161 161.103516,306.686218 
	C162.346420,323.839935 165.998688,340.570465 169.393967,357.347229 
	C179.649353,408.020935 193.045517,457.769714 213.507996,505.404327 
	C217.322937,514.285095 221.251694,523.126526 226.546021,531.255859 
	C228.350098,534.026001 230.169113,537.130188 233.929520,537.473877 
	C243.996262,538.394104 255.597565,534.484436 258.701508,521.414734 
	C260.556702,513.603088 259.856964,505.824860 258.328766,498.134552 
	C250.115097,456.801208 239.479736,416.067413 227.537476,374.829193 
M360.022583,493.290649 
	C359.768402,493.906525 359.595093,494.573242 359.245544,495.129181 
	C358.008606,497.096710 357.888977,501.010559 354.734772,500.088654 
	C351.416962,499.118835 353.047028,495.627563 353.225128,493.096100 
	C353.236694,492.931580 353.298828,492.771210 353.326508,492.607086 
	C356.678589,472.736084 361.446716,453.173157 366.062714,433.573608 
	C367.604279,427.028076 369.962524,420.622406 370.207336,412.762238 
	C368.019135,415.649414 367.338837,418.154480 366.683044,420.649811 
	C364.398987,429.340820 362.136597,438.037567 359.889099,446.738098 
	C354.604828,467.194641 349.363312,487.678406 346.643768,508.661346 
	C345.738861,515.643494 346.823181,522.695251 350.946198,528.782410 
	C358.939148,540.583252 374.613861,540.352417 381.842560,528.366699 
	C383.302979,525.945129 384.660919,523.449890 385.896210,520.906189 
	C398.955109,494.015869 409.017426,465.926086 417.568390,437.381866 
	C427.211823,405.191040 434.372406,372.331970 440.699127,339.315857 
	C442.890015,327.882568 444.903809,316.423035 445.631104,304.781342 
	C445.792328,302.200226 445.514740,299.834137 443.016510,298.221405 
	C426.567719,287.602509 413.872375,288.416779 403.534821,305.979584 
	C403.028534,306.839691 402.597168,307.744110 402.136597,308.630859 
	C391.371735,329.357605 386.249207,352.013489 379.745636,374.195740 
	C379.475006,375.118805 379.185364,376.229370 380.789917,376.765350 
	C382.139343,376.357178 382.445526,375.066193 382.851624,373.803192 
	C385.805939,364.614624 388.626617,355.378906 391.800354,346.266357 
	C394.371002,338.885468 396.614655,331.359314 400.219147,324.373596 
	C400.900574,323.052917 401.723572,321.574921 403.575958,321.941925 
	C405.551758,322.333374 405.478943,324.085327 405.424927,325.546265 
	C405.326752,328.201141 405.288666,330.899811 404.777100,333.491699 
	C394.083099,387.672424 377.548370,440.222748 360.022583,493.290649 
M422.320251,134.185349 
	C403.292694,116.283379 380.991119,104.612526 355.444336,99.199249 
	C326.766907,93.122581 297.751221,94.106224 268.886871,96.453316 
	C234.081863,99.283470 204.189194,113.644691 179.587692,138.627625 
	C178.108871,140.129364 176.358337,141.569214 176.416367,144.047256 
	C178.178589,145.833130 180.355148,146.431580 182.717056,146.770004 
	C189.017029,147.672653 195.056183,146.655228 200.761398,144.061157 
	C208.491165,140.546509 216.151855,136.866837 223.735413,133.046051 
	C255.194946,117.195946 288.668823,112.879898 323.312683,115.923645 
	C345.988953,117.915955 367.223663,125.032776 387.428467,135.413330 
	C394.975037,139.290512 402.421814,143.446457 410.633362,145.850800 
	C415.992889,147.420059 421.417450,147.991653 426.835358,146.140503 
	C430.072266,145.034531 431.289032,143.209961 428.469696,140.339722 
	C426.601898,138.438187 424.709595,136.560684 422.320251,134.185349 
M462.707703,338.015900 
	C461.231293,345.862671 459.842712,353.727142 458.264587,361.553406 
	C445.692749,423.899506 429.665009,485.151123 400.656342,542.252991 
	C399.061768,545.391785 399.808624,547.141296 403.128082,547.468567 
	C408.877960,548.035461 414.906464,547.904663 419.279236,540.493225 
	C429.907867,522.478760 438.680786,503.620026 445.583038,483.945007 
	C454.125702,459.594025 462.681793,435.278595 473.031799,411.605621 
	C477.559357,401.250061 480.861816,390.364502 484.958130,379.811798 
	C486.489807,375.865967 485.683350,373.779541 481.423035,373.270782 
	C477.045380,372.748077 476.373169,370.359406 477.060120,366.285248 
	C479.272583,353.163544 481.122009,339.992798 480.704102,326.598480 
	C480.468933,319.061462 476.480225,313.789581 471.090637,309.302612 
	C468.492523,307.139648 466.712097,307.493713 466.274109,311.440582 
	C465.320251,320.035858 464.066162,328.597809 462.707703,338.015900 
M175.282532,468.072662 
	C158.525513,415.771423 147.075058,362.249084 139.185074,307.961639 
	C135.685120,308.163422 134.073013,310.110687 132.330933,311.887756 
	C125.789215,318.560791 124.844048,326.847260 125.625488,335.552277 
	C126.562050,345.985138 127.401833,356.447693 129.461349,366.728912 
	C130.240051,370.616180 129.508514,372.770081 125.350502,373.237091 
	C121.072021,373.717621 120.204704,376.141144 121.597641,379.923126 
	C123.380859,384.764679 124.865387,389.721832 126.780807,394.508240 
	C139.268250,425.713135 151.920837,456.840912 162.812973,488.670837 
	C169.183319,507.286835 177.772354,525.008606 188.202881,541.759888 
	C192.037735,547.918640 200.793213,549.616272 207.137939,545.199097 
	C194.602188,520.634827 184.540771,494.943237 175.282532,468.072662 
M493.777161,372.089722 
	C488.577332,390.209229 482.113525,407.924530 474.135681,424.944672 
	C461.317902,452.290466 452.750519,481.264465 440.876984,508.950958 
	C439.123932,513.038696 440.459198,514.841797 444.957672,514.880249 
	C449.326263,514.917603 452.461700,513.024780 454.772247,509.204224 
	C475.557373,474.835876 492.006378,438.536896 503.587097,400.060669 
	C513.941589,365.658600 520.079285,330.513306 521.554871,294.614319 
	C522.005676,283.645203 521.613770,283.979584 510.998352,284.108307 
	C505.823608,284.171082 504.153839,286.130219 504.413757,290.827148 
	C504.505554,292.485809 504.418732,294.159393 504.333557,295.822083 
	C503.029602,321.277161 500.657867,346.587738 493.777161,372.089722 
M138.608948,485.976624 
	C143.063309,493.782074 147.569336,501.558655 151.949524,509.405518 
	C154.041183,513.152527 157.161865,514.869629 161.347534,514.822937 
	C165.809067,514.773132 167.103333,513.024780 165.506973,508.806152 
	C163.682129,503.983734 161.487854,499.301605 159.645676,494.485260 
	C151.567810,473.365601 144.547104,451.855316 135.024109,431.270813 
	C129.303543,418.905457 124.704178,406.018494 119.678116,393.335327 
	C107.111626,361.624115 103.903358,328.222229 101.858253,294.602448 
	C101.293022,285.310486 101.153511,285.318970 91.873901,283.866455 
	C86.148689,282.970306 85.463821,283.520020 85.292732,289.252838 
	C84.729362,308.130646 87.274216,326.741150 90.287056,345.293121 
	C98.309479,394.692352 114.752052,441.223083 138.608948,485.976624 
M432.101227,400.439240 
	C425.443512,430.928955 415.648041,460.449799 404.278748,489.455902 
	C397.544586,506.636414 391.420135,524.162720 379.867065,538.994507 
	C377.664825,541.821716 379.442200,543.675598 381.755402,545.062805 
	C387.417908,548.458496 393.906067,546.652466 396.924133,540.775024 
	C410.196045,514.929260 420.649475,487.892273 429.432648,460.276306 
	C443.366638,416.465149 452.901947,371.569183 460.534760,326.268280 
	C461.582397,320.050354 462.167572,313.727875 462.520386,307.428833 
	C462.756531,303.213593 459.541992,300.553284 455.186768,300.365692 
	C450.570435,300.166840 450.303986,303.171112 450.139099,306.611206 
	C449.964081,310.262665 449.580566,313.918915 449.038757,317.535706 
	C444.895691,345.193573 438.660095,372.426727 432.101227,400.439240 
M172.631454,392.672791 
	C166.227051,363.783875 158.697632,335.105743 156.506836,305.432678 
	C156.197418,301.241791 153.663177,299.586761 149.591965,300.574493 
	C145.862289,301.479340 144.127563,303.754059 144.168060,307.776611 
	C144.281021,318.994171 146.328644,329.963684 148.433914,340.885040 
	C158.483078,393.016144 169.496796,444.900299 189.256744,494.463318 
	C195.549194,510.246399 201.845032,526.018127 209.792374,541.063782 
	C212.833145,546.820496 219.752319,548.457275 225.026871,544.718445 
	C227.345596,543.074890 228.463226,541.130737 226.287292,538.457520 
	C216.771545,526.766724 211.494431,512.841125 205.946533,499.119720 
	C192.072922,464.806488 180.535767,429.738983 172.631454,392.672791 
M499.766876,257.897522 
	C500.961670,263.927948 502.183777,269.953156 503.332092,275.992401 
	C503.621490,277.514465 503.911652,279.174927 505.357544,279.808258 
	C509.807007,281.757233 514.228088,280.230896 518.458008,278.957642 
	C521.783447,277.956604 521.729309,274.734528 521.703064,271.832153 
	C521.523132,251.951843 517.635376,232.523911 514.505310,213.005325 
	C514.054871,210.196167 512.531128,208.991043 509.528625,209.973633 
	C505.579742,211.265961 501.599335,212.519852 497.553009,213.441055 
	C493.033081,214.470062 491.799103,216.760727 492.765381,221.345383 
	C495.264557,233.202850 497.315552,245.154770 499.766876,257.897522 
M108.127815,213.324860 
	C105.751846,212.557739 103.374306,211.795456 101.000214,211.022583 
	C94.221832,208.815979 93.849442,208.883316 92.568184,216.021225 
	C89.513466,233.039124 86.296959,250.024231 84.913155,267.312805 
	C84.076302,277.768005 85.389336,279.742310 95.653854,280.639587 
	C100.107857,281.028931 102.547813,279.420959 103.382584,274.970642 
	C106.721962,257.167908 110.102264,239.372284 113.606514,221.601440 
	C114.459290,217.276810 113.450394,214.450775 108.127815,213.324860 
M108.943726,442.759155 
	C114.057152,459.820526 120.170067,476.518829 127.343040,492.818878 
	C130.337997,499.624725 134.634354,502.506989 141.393112,501.920471 
	C128.688919,479.238312 117.531441,456.214722 108.122856,432.346649 
	C107.561882,432.566895 107.000900,432.787170 106.439919,433.007416 
	C107.186981,436.006256 107.934044,439.005066 108.943726,442.759155 
M490.900543,450.268280 
	C483.486877,467.817963 474.571411,484.644470 465.547546,501.131409 
	C467.655579,503.311981 469.204620,502.258362 470.696930,501.689056 
	C475.062012,500.023804 477.476074,496.508148 479.291382,492.452240 
	C486.911682,475.426453 493.042664,457.860046 498.271942,439.971069 
	C498.752808,438.326050 499.519073,436.547302 497.950867,434.513306 
	C494.713623,439.281250 493.672272,444.758942 490.900543,450.268280 
M380.092316,413.232849 
	C386.881897,390.950592 393.420166,368.604340 397.463348,345.617401 
	C389.108002,367.539520 383.615723,390.328094 376.739258,412.691620 
	C376.320496,414.053406 375.790955,415.669067 377.783020,416.471405 
	C379.249847,416.193390 379.314941,414.846039 380.092316,413.232849 
M376.755951,424.988098 
	C376.900665,423.885834 377.597626,422.411987 375.998413,422.037537 
	C374.239899,421.625854 373.851105,423.314606 373.528168,424.538940 
	C371.034180,433.994934 368.511658,443.445312 366.200226,452.946686 
	C365.042084,457.707367 363.188324,462.394684 363.703461,467.453461 
	C368.694244,453.710449 372.801910,439.738007 376.755951,424.988098 
M374.632355,401.621460 
	C374.668152,400.541351 375.227417,399.287781 373.376617,398.591766 
	C371.452057,401.933502 370.453461,405.436035 370.683167,410.367493 
	C373.539185,407.638184 373.054169,404.507812 374.632355,401.621460 
z"/>
<path fill="#000000" opacity="1.000000" stroke="none" 
	d="
M209.733688,332.424347 
	C226.654404,382.825653 241.101761,433.511230 251.973679,485.179657 
	C252.791824,489.067841 253.058960,493.077118 253.479187,497.041046 
	C253.619431,498.364014 253.554184,499.846924 251.903122,500.317688 
	C250.259964,500.786163 249.346802,499.570923 248.820419,498.378357 
	C247.277481,494.882538 245.681915,491.382080 244.515533,487.752167 
	C228.530457,438.004395 212.859421,388.165070 202.271652,336.906769 
	C201.567001,333.495392 201.117615,330.019470 200.767029,326.551605 
	C200.587906,324.779938 200.446930,322.614441 202.785553,322.012726 
	C204.864105,321.477875 205.730988,323.256165 206.440430,324.731812 
	C207.591507,327.126068 208.541992,329.616791 209.733688,332.424347 
M209.437805,349.853851 
	C218.116165,391.595306 231.466782,432.007416 244.289368,472.571167 
	C236.045837,429.881958 223.518951,388.386841 210.001434,347.163879 
	C209.384216,347.612244 209.242111,347.914032 209.218750,348.224792 
	C209.194275,348.550598 209.283707,348.884979 209.437805,349.853851 
z"/>
</svg>