<svg version="1.1" id="Layer_1" xmlns="http://www.w3.org/2000/svg" xmlns:xlink="http://www.w3.org/1999/xlink" x="0px" y="0px"
	 width="100%" viewBox="0 0 859 839" enable-background="new 0 0 859 839" xml:space="preserve">
<path fill="#000000" opacity="1.000000" stroke="none" 
	d="
M459.000000,840.000000 
	C306.000031,840.000000 153.500092,840.000000 1.000102,840.000000 
	C1.000068,560.333435 1.000068,280.666931 1.000034,1.000290 
	C287.333099,1.000193 573.666199,1.000193 859.999512,1.000097 
	C859.999634,280.666351 859.999634,560.332703 859.999817,839.999512 
	C726.500000,840.000000 593.000000,840.000000 459.000000,840.000000 
M582.595398,768.090271 
	C640.911438,744.733398 691.084351,709.621887 731.487122,661.593933 
	C807.444214,571.301758 836.653442,467.211517 818.973755,350.595917 
	C807.554199,275.272186 775.673523,208.853058 723.453796,153.541519 
	C629.847778,54.393314 514.458130,14.197180 379.552887,34.172718 
	C291.546448,47.203911 217.113327,88.248306 157.795273,154.337097 
	C77.948975,243.297241 46.194515,348.114227 62.010342,466.615204 
	C72.401031,544.467957 105.032562,612.629578 158.202835,670.265076 
	C229.263351,747.293335 317.764404,788.780823 422.423096,794.626099 
	C477.351929,797.694031 530.626160,788.683044 582.595398,768.090271 
z"/>
<path fill="#23CF5F" opacity="1.000000" stroke="none" 
	d="
M582.232422,768.224731 
	C530.626160,788.683044 477.351929,797.694031 422.423096,794.626099 
	C317.764404,788.780823 229.263351,747.293335 158.202835,670.265076 
	C105.032562,612.629578 72.401031,544.467957 62.010342,466.615204 
	C46.194515,348.114227 77.948975,243.297241 157.795273,154.337097 
	C217.113327,88.248306 291.546448,47.203911 379.552887,34.172718 
	C514.458130,14.197180 629.847778,54.393314 723.453796,153.541519 
	C775.673523,208.853058 807.554199,275.272186 818.973755,350.595917 
	C836.653442,467.211517 807.444214,571.301758 731.487122,661.593933 
	C691.084351,709.621887 640.911438,744.733398 582.232422,768.224731 
M205.627060,325.025513 
	C211.549850,324.656067 217.783173,325.357788 223.345612,323.745300 
	C262.757843,312.320282 303.073975,306.609558 343.895233,304.250336 
	C395.457947,301.270325 446.798950,303.756653 497.832764,311.905914 
	C557.780396,321.478546 615.441345,337.891541 668.285400,368.775391 
	C676.272095,373.443085 684.955872,374.492859 693.883911,372.420319 
	C707.993164,369.145111 718.734009,357.759705 720.946594,344.143494 
	C723.416565,328.942657 717.289917,314.449585 703.882202,307.122101 
	C687.541992,298.192017 671.077515,289.287933 653.979370,281.980865 
	C576.038940,248.672104 493.931091,235.084824 409.762146,232.148605 
	C371.081085,230.799225 332.467041,232.342941 294.019257,237.077942 
	C263.407440,240.847931 233.175003,246.516617 203.558273,255.254669 
	C196.015411,257.480103 189.508850,261.260437 184.526031,267.457184 
	C168.419937,287.487061 177.592941,318.685974 205.627060,325.025513 
M646.263062,490.033142 
	C658.987976,485.899841 666.460083,477.089630 667.609680,463.895844 
	C668.705627,451.317261 662.930237,441.799896 652.125244,435.254089 
	C625.836792,419.328247 598.147522,406.336456 569.180237,396.158081 
	C490.911163,368.656128 410.365326,358.961609 327.752869,365.765747 
	C292.976715,368.629944 258.810913,374.732788 225.387283,384.819946 
	C208.130692,390.027954 198.932022,405.616333 203.504562,421.737640 
	C208.177460,438.212738 224.493240,446.936066 241.832184,441.882416 
	C314.633575,420.663391 388.480743,418.416840 462.916840,430.384125 
	C519.586975,439.495117 573.460083,457.016083 622.837830,487.008331 
	C629.839966,491.261444 637.463318,492.285004 646.263062,490.033142 
M540.584473,566.879211 
	C554.774109,574.191956 568.830139,581.784424 583.228882,588.659180 
	C587.987183,590.931030 593.707336,592.656311 598.851013,592.348267 
	C609.687683,591.699341 617.531860,583.709839 619.667297,573.167297 
	C621.628174,563.486633 616.888489,553.691223 607.370483,547.942993 
	C543.875427,509.596436 474.586365,491.484406 400.868500,488.900665 
	C360.949371,487.501556 321.312531,490.494110 281.965210,497.154175 
	C266.880432,499.707489 251.883011,502.832489 236.927628,506.074432 
	C227.494202,508.119415 221.345612,514.211975 219.056046,523.621643 
	C216.760284,533.056763 219.626755,541.151001 226.967529,547.392761 
	C234.056503,553.420349 242.197723,553.575745 250.997955,551.606262 
	C302.401215,540.102295 354.319183,533.968567 407.118744,536.809326 
	C453.074677,539.281860 497.458313,548.499817 540.584473,566.879211 
z"/>
<path fill="#010101" opacity="1.000000" stroke="none" 
	d="
M205.213745,324.967560 
	C177.592941,318.685974 168.419937,287.487061 184.526031,267.457184 
	C189.508850,261.260437 196.015411,257.480103 203.558273,255.254669 
	C233.175003,246.516617 263.407440,240.847931 294.019257,237.077942 
	C332.467041,232.342941 371.081085,230.799225 409.762146,232.148605 
	C493.931091,235.084824 576.038940,248.672104 653.979370,281.980865 
	C671.077515,289.287933 687.541992,298.192017 703.882202,307.122101 
	C717.289917,314.449585 723.416565,328.942657 720.946594,344.143494 
	C718.734009,357.759705 707.993164,369.145111 693.883911,372.420319 
	C684.955872,374.492859 676.272095,373.443085 668.285400,368.775391 
	C615.441345,337.891541 557.780396,321.478546 497.832764,311.905914 
	C446.798950,303.756653 395.457947,301.270325 343.895233,304.250336 
	C303.073975,306.609558 262.757843,312.320282 223.345612,323.745300 
	C217.783173,325.357788 211.549850,324.656067 205.213745,324.967560 
z"/>
<path fill="#010101" opacity="1.000000" stroke="none" 
	d="
M645.853638,490.124756 
	C637.463318,492.285004 629.839966,491.261444 622.837830,487.008331 
	C573.460083,457.016083 519.586975,439.495117 462.916840,430.384125 
	C388.480743,418.416840 314.633575,420.663391 241.832184,441.882416 
	C224.493240,446.936066 208.177460,438.212738 203.504562,421.737640 
	C198.932022,405.616333 208.130692,390.027954 225.387283,384.819946 
	C258.810913,374.732788 292.976715,368.629944 327.752869,365.765747 
	C410.365326,358.961609 490.911163,368.656128 569.180237,396.158081 
	C598.147522,406.336456 625.836792,419.328247 652.125244,435.254089 
	C662.930237,441.799896 668.705627,451.317261 667.609680,463.895844 
	C666.460083,477.089630 658.987976,485.899841 645.853638,490.124756 
z"/>
<path fill="#010101" opacity="1.000000" stroke="none" 
	d="
M540.237610,566.720642 
	C497.458313,548.499817 453.074677,539.281860 407.118744,536.809326 
	C354.319183,533.968567 302.401215,540.102295 250.997955,551.606262 
	C242.197723,553.575745 234.056503,553.420349 226.967529,547.392761 
	C219.626755,541.151001 216.760284,533.056763 219.056046,523.621643 
	C221.345612,514.211975 227.494202,508.119415 236.927628,506.074432 
	C251.883011,502.832489 266.880432,499.707489 281.965210,497.154175 
	C321.312531,490.494110 360.949371,487.501556 400.868500,488.900665 
	C474.586365,491.484406 543.875427,509.596436 607.370483,547.942993 
	C616.888489,553.691223 621.628174,563.486633 619.667297,573.167297 
	C617.531860,583.709839 609.687683,591.699341 598.851013,592.348267 
	C593.707336,592.656311 587.987183,590.931030 583.228882,588.659180 
	C568.830139,581.784424 554.774109,574.191956 540.237610,566.720642 
z"/>
</svg>